<svg width="36" height="36" viewBox="0 0 36 36" fill="none" xmlns="http://www.w3.org/2000/svg">
<path d="M0.5 18C0.5 8.33502 8.33502 0.5 18 0.5C27.665 0.5 35.5 8.33502 35.5 18C35.5 27.665 27.665 35.5 18 35.5C8.33502 35.5 0.5 27.665 0.5 18Z" fill="#226068" stroke="#226068"/>
<path d="M8.87555 20.4527L8.87555 20.4527L13.6403 25.3127C13.6403 25.3127 13.6403 25.3127 13.6403 25.3127C14.1464 25.829 14.9712 25.829 15.4774 25.3127C15.4774 25.3127 15.4774 25.3127 15.4774 25.3127L27.1244 13.4327C27.6252 12.922 27.6252 12.0979 27.1244 11.5872C26.6183 11.0709 25.7935 11.0709 25.2874 11.5872L25.2874 11.5872L14.5588 22.5302L10.7127 18.6072C10.2065 18.0909 9.3817 18.0909 8.87555 18.6072C8.37482 19.118 8.37482 19.942 8.87555 20.4527Z" fill="white" stroke="white"/>
</svg>
