<svg width="185" height="39" viewBox="0 0 185 39" fill="none" xmlns="http://www.w3.org/2000/svg">
<g clip-path="url(#clip0_4646_3922)">
<path d="M94.4042 30.3966C94.4833 30.3966 94.4833 30.3966 94.5624 30.3174L90.2107 30.9504C91.714 30.9504 93.1382 30.7922 94.4042 30.3966Z" fill="black"/>
<path d="M116.796 30.6339H122.572V26.5195L116.796 27.3108V30.6339Z" fill="black"/>
<path d="M105.086 30.6339H110.941V28.102L105.086 28.8932V30.6339Z" fill="black"/>
<path d="M142.986 13.3851C142.669 12.7521 142.194 12.1983 141.561 11.7235C140.929 11.2488 140.137 10.9323 139.109 10.6949C138.08 10.4576 136.972 10.2993 135.548 10.2993C134.44 10.2993 133.412 10.4576 132.462 10.6949C131.513 10.9323 130.643 11.3279 129.93 11.7235C129.218 12.1192 128.585 12.7521 128.111 13.3851C127.636 14.0181 127.24 14.7302 127.082 15.5214H131.908C131.988 15.1258 132.067 14.7302 132.225 14.3346C132.383 13.939 132.621 13.6225 132.858 13.306C133.095 12.9895 133.412 12.7521 133.807 12.5939C134.203 12.4357 134.599 12.3565 134.994 12.3565C135.39 12.3565 135.706 12.4357 136.023 12.5148C136.339 12.5939 136.577 12.8313 136.814 13.0686C137.051 13.306 137.21 13.7016 137.368 14.0972C137.526 14.4928 137.526 15.0467 137.526 15.6797V17.4995C136.181 17.8951 134.915 18.2908 133.649 18.7655C132.383 19.2402 131.275 19.715 130.247 20.2688C129.218 20.8227 128.427 21.5348 127.873 22.326C127.24 23.1173 127.003 23.9876 127.003 25.0953L132.858 24.3041C132.937 23.9085 133.016 23.592 133.254 23.2755C133.57 22.8008 133.887 22.326 134.361 21.9304C134.836 21.5348 135.311 21.1392 135.865 20.8227C136.418 20.5062 136.972 20.1897 137.526 19.9523V23.7502L143.302 22.959V15.6006C143.46 14.7302 143.302 14.0181 142.986 13.3851Z" fill="black"/>
<path d="M136.893 26.2822C136.339 26.7569 135.785 27.0734 135.311 27.3899C134.836 27.7064 134.361 27.7855 133.887 27.7855C133.333 27.7855 132.858 27.6273 132.541 27.2316C132.225 26.836 132.067 26.3613 132.067 25.7283C132.067 25.5701 132.067 25.3327 132.146 25.1744L126.291 25.9657C126.291 26.6778 126.449 27.3108 126.686 27.9438C126.924 28.5767 127.319 29.0515 127.794 29.5262C128.269 30.001 128.902 30.3174 129.535 30.5548C130.168 30.7922 131.038 30.9504 131.908 30.9504C132.541 30.9504 133.095 30.8713 133.57 30.7922C134.045 30.7131 134.44 30.5548 134.836 30.3174C135.232 30.0801 135.548 29.9218 135.865 29.6053C136.181 29.2888 136.498 29.0515 136.814 28.735C136.893 28.8932 136.972 29.1306 137.051 29.368C137.131 29.6053 137.289 29.7636 137.447 29.9218C137.605 30.0801 137.764 30.2383 137.922 30.3966C138.08 30.5548 138.317 30.5548 138.476 30.5548H145.28C144.41 30.1592 143.698 29.7636 143.223 29.2097C142.748 28.6559 142.511 28.0229 142.511 27.2316V23.7502L136.735 24.5415V26.2822H136.893Z" fill="black"/>
<path d="M155.804 15.0467C156.041 14.7302 156.357 14.4929 156.674 14.2555C156.99 14.0181 157.386 13.8599 157.782 13.7016C158.177 13.5434 158.573 13.5434 158.969 13.5434C159.285 13.5434 159.522 13.5434 159.76 13.6225C159.997 13.7016 160.235 13.7016 160.393 13.8599C160.551 14.0181 160.788 14.0972 161.026 14.2555C161.263 14.4137 161.5 14.572 161.738 14.8093L163.716 11.7235C163.241 11.3279 162.608 10.9323 161.975 10.6158C161.342 10.2993 160.551 10.1411 159.76 10.1411C158.889 10.1411 158.098 10.2993 157.307 10.7741C156.516 11.2488 155.804 11.7235 155.171 12.3565L153.43 10.5367L149.395 12.673V22.326L155.171 21.5348V16.2336C155.329 15.6797 155.487 15.3632 155.804 15.0467Z" fill="black"/>
<path d="M148.603 30.6339H154.379V22.1678L148.603 22.959V30.6339Z" fill="black"/>
<path d="M171.866 16.1544C172.103 15.8379 172.34 15.5214 172.657 15.2841C172.973 15.0467 173.211 14.7302 173.527 14.572C173.844 14.4137 174.16 14.1764 174.556 14.0972C174.951 14.0181 175.268 13.939 175.584 13.939C176.059 13.939 176.534 14.0972 176.929 14.4137C177.325 14.7302 177.721 15.205 178.037 15.8379C178.354 16.4709 178.591 17.2622 178.749 18.1325C178.749 18.2116 178.749 18.2116 178.749 18.2908L184.921 17.4204C184.842 16.9457 184.684 16.4709 184.525 16.0753C184.13 14.9676 183.576 14.0181 182.864 13.2269C182.152 12.4357 181.281 11.8027 180.332 11.3279C179.382 10.8532 178.275 10.6158 177.009 10.6158C175.901 10.6158 174.872 10.7741 174.002 11.1697C173.132 11.5653 172.419 11.9609 171.707 12.5148V10.6158H170.204L166.169 12.7521V20.1106L171.945 19.3194V16.1544H171.866Z" fill="black"/>
<path d="M178.037 18.9237C178.195 19.7941 178.275 20.8227 178.275 22.0095C178.275 22.959 178.195 23.8294 177.958 24.6206C177.721 25.4118 177.483 26.1239 177.167 26.6778C176.85 27.2316 176.455 27.7064 175.98 28.0229C175.505 28.3394 175.11 28.4976 174.635 28.4976C174.081 28.4976 173.606 28.4185 173.132 28.2602C172.657 28.102 172.34 27.8646 172.024 27.5481C171.707 27.2317 171.47 26.9152 171.312 26.5195C171.153 26.1239 171.074 25.6492 171.074 25.2536V19.7941L165.298 20.5853V38.4671H171.074V30.4757C171.628 30.7131 172.103 30.7922 172.657 30.8713C173.211 30.9504 173.844 30.9504 174.635 30.9504C176.138 30.9504 177.483 30.7131 178.67 30.1592C179.857 29.6053 180.886 28.8932 181.756 27.9438C182.626 26.9943 183.259 25.8866 183.734 24.5415C184.209 23.1964 184.446 21.7722 184.446 20.2688C184.446 19.5567 184.367 18.8446 184.209 18.2116L178.037 18.9237Z" fill="black"/>
<path d="M6.18208 9.34986C6.34032 8.95424 6.57769 8.55863 6.89418 8.24214C7.21067 7.92564 7.68541 7.60915 8.23927 7.45091C8.79313 7.29266 9.50524 7.13441 10.2965 7.13441C11.1668 7.13441 11.8789 7.29266 12.5119 7.53003C13.1449 7.7674 13.6196 8.08389 14.0944 8.4795C14.5691 8.87512 14.8856 9.34986 15.2021 9.90372C15.5186 10.4576 15.756 11.0114 15.9933 11.6444H19.8703C19.5539 10.6949 19.1582 9.82459 18.6835 9.03337C18.2088 8.24214 17.3384 7.45091 16.5472 6.81792C15.756 6.18494 14.8856 5.7102 13.857 5.39371C12.8284 5.07722 11.7207 4.83985 10.4547 4.83985C8.95138 4.83985 7.52717 4.99809 6.34032 5.39371C5.15348 5.78932 4.12488 6.26406 3.25453 6.89705C2.38417 7.53003 1.83031 8.24214 1.35557 9.11249C1.11821 9.58723 0.959959 10.062 0.880836 10.5367L6.02383 11.2488C5.94471 11.0114 5.94471 10.8532 5.94471 10.6158C5.94471 10.1411 6.02383 9.74547 6.18208 9.34986Z" fill="black"/>
<path d="M1.51382 12.5939C1.51382 13.5434 1.67207 14.3346 2.06768 15.0467C2.4633 15.7588 2.93804 16.3918 3.57102 16.9457C4.204 17.4995 4.91611 18.0534 5.70734 18.449C6.49857 18.8446 7.36892 19.3194 8.16015 19.7941C8.95138 20.2688 9.82173 20.5853 10.613 21.0601C11.4042 21.5348 12.1163 21.9304 12.7493 22.4051C13.3823 22.8799 13.857 23.4337 14.2526 23.9876C14.6482 24.5415 14.8065 25.2536 14.8065 25.9657C14.8065 26.5987 14.6482 27.0734 14.4109 27.469C14.1735 27.8646 13.857 28.1811 13.4614 28.4185C13.0658 28.6559 12.7493 28.8141 12.1954 28.9724C11.6416 29.1306 11.1668 29.1306 10.613 29.1306C9.82173 29.1306 9.10963 29.0515 8.55577 28.8141C8.0019 28.5767 7.44804 28.2602 6.97331 27.8646C6.49857 27.469 6.18208 26.9943 5.86559 26.4404C5.54909 25.8866 5.39085 25.3327 5.2326 24.6997H0.959961C1.11821 25.7283 1.4347 26.6778 1.90944 27.5481C2.38417 28.4185 3.01716 29.1306 3.80839 29.7636C4.59962 30.3966 5.54909 30.8713 6.65682 31.1878C7.76454 31.5043 9.10963 31.7417 10.613 31.7417C12.1954 31.7417 13.6196 31.5834 14.8856 31.1878C16.1516 30.7922 17.1802 30.3174 17.9714 29.6845C18.7626 29.0515 19.3956 28.2603 19.8704 27.3899C20.3451 26.5195 20.5033 25.5701 20.5033 24.5415C20.5033 23.6711 20.3451 22.8799 19.8704 22.1678C19.3956 21.4557 18.9209 20.8227 18.2879 20.2688C17.6549 19.715 16.8637 19.1611 16.0724 18.6864C15.2812 18.2116 14.4109 17.7369 13.5405 17.3413C12.6702 16.9457 11.7998 16.4709 11.0086 16.0753C10.2173 15.6797 9.42612 15.205 8.79313 14.7302C8.16015 14.2555 7.60629 13.7807 7.21068 13.2269C6.97331 12.8313 6.73594 12.4357 6.65682 12.04L1.67207 11.2488C1.59294 11.6444 1.51382 12.1192 1.51382 12.5939Z" fill="black"/>
<path d="M37.8313 11.5653L34.0334 14.8885L37.673 15.3632L41.9457 11.5653H37.8313Z" fill="black"/>
<path d="M30.3146 1.9123H28.653L24.5386 3.96949V13.6225L30.3146 14.3346V1.9123Z" fill="black"/>
<path d="M31.1058 18.8446V15.1258L25.3298 14.3346V31.2669H31.1058V23.6711L37.673 31.2669H44.5567L34.429 19.5567L38.4642 16.0753L34.8246 15.6006L31.1058 18.8446Z" fill="black"/>
<path d="M46.9304 6.89704C47.2469 7.13441 47.5634 7.37178 47.8799 7.53003C48.1964 7.68827 48.6711 7.7674 49.0667 7.7674C49.4623 7.7674 49.9371 7.68827 50.2536 7.53003C50.5701 7.37178 50.9657 7.21354 51.203 6.89704C51.4404 6.58055 51.6778 6.34318 51.836 6.02669C51.9943 5.7102 52.0734 5.31458 52.0734 4.91897C52.0734 4.52335 51.9943 4.20686 51.836 3.81125C51.6778 3.41563 51.4404 3.17826 51.203 2.94089C50.9657 2.70353 50.5701 2.46616 50.2536 2.30791C49.9371 2.14966 49.4623 2.07054 49.0667 2.07054C48.6711 2.07054 48.1964 2.14966 47.8799 2.30791C47.5634 2.46616 47.1678 2.70353 46.9304 2.94089C46.693 3.17826 46.3765 3.49476 46.2183 3.81125C46.06 4.12774 45.9809 4.52335 45.9809 4.91897C45.9809 5.31458 46.06 5.63108 46.2183 6.02669C46.3765 6.42231 46.6139 6.65967 46.9304 6.89704Z" fill="black"/>
<path d="M47.0095 31.2669H52.7855V17.9743L47.0095 17.183V31.2669Z" fill="black"/>
<path d="M50.2536 11.1697L46.2183 13.306V16.4709L51.9943 17.183V11.1697H50.2536Z" fill="black"/>
<path d="M58.3241 31.2669H64.021V19.3985L58.3241 18.6864V31.2669Z" fill="black"/>
<path d="M61.5682 1.9123L57.5329 3.96949V17.9743L63.2297 18.6864V1.9123H61.5682Z" fill="black"/>
<path d="M72.7245 1.9123L68.7683 3.96949V19.3985L74.4652 20.1897V1.9123H72.7245Z" fill="black"/>
<path d="M69.5596 31.2669H75.2564V20.9018L69.5596 20.1106V31.2669Z" fill="black"/>
<path d="M97.0153 19.4776C96.3823 18.9237 95.591 18.3699 94.7998 17.8951C94.0086 17.4204 93.1382 16.9457 92.2679 16.55C91.3975 16.1544 90.5272 15.6797 89.7359 15.2841C88.9447 14.8885 88.1535 14.4137 87.5205 13.939C86.8875 13.4643 86.3337 12.9895 85.938 12.4357C85.5424 11.8818 85.3051 11.2488 85.3051 10.6158C85.3051 10.2202 85.3842 9.82459 85.5424 9.42898C85.7007 9.03336 85.938 8.63775 86.2545 8.32126C86.571 8.00477 87.0458 7.68827 87.5996 7.53003C88.1535 7.37178 88.8656 7.21354 89.6568 7.21354C90.5272 7.21354 91.2393 7.37178 91.8723 7.60915C92.5052 7.84652 92.98 8.16301 93.4547 8.55863C93.9295 8.95424 94.246 9.42898 94.5624 9.98284C94.8789 10.5367 95.1163 11.0906 95.3537 11.7235H99.2307C98.9142 10.7741 98.5186 9.90372 98.0439 9.11249C97.5691 8.32126 96.857 7.60915 96.0658 6.97617C95.2746 6.34318 94.4042 5.86845 93.3756 5.55195C92.347 5.23546 91.2393 4.99809 89.9733 4.99809C88.47 4.99809 87.0458 5.15634 85.8589 5.55195C84.6721 5.94757 83.6435 6.42231 82.8522 7.05529C82.061 7.68827 81.428 8.40038 80.9533 9.27073C80.4786 10.1411 80.3203 11.0114 80.3203 12.04C80.3203 12.9895 80.4786 13.7807 80.8742 14.4928C81.2698 15.205 81.7445 15.8379 82.3775 16.3918C83.0105 16.9457 83.7226 17.4995 84.5138 17.8951C85.3051 18.2908 86.1754 18.7655 86.9666 19.2402C87.7579 19.715 88.6282 20.0315 89.4195 20.5062C90.2107 20.9809 90.9228 21.3765 91.5558 21.8513C91.9514 22.1678 92.2679 22.4843 92.5844 22.8008L99.2307 23.6711C99.1516 22.959 98.9933 22.2469 98.6768 21.6139C98.2021 20.6644 97.6482 20.0315 97.0153 19.4776Z" fill="black"/>
<path d="M93.7712 23.9085C94.1668 24.4623 94.3251 25.1745 94.3251 25.8866C94.3251 26.5195 94.1668 26.9943 93.9294 27.3899C93.6921 27.7855 93.3756 28.102 92.98 28.3394C92.5844 28.5767 92.1096 28.8141 91.6349 28.8932C91.1601 28.9724 90.6063 29.0515 90.0524 29.0515C89.2612 29.0515 88.5491 28.9724 87.9952 28.735C87.4414 28.4976 86.8875 28.1811 86.4128 27.7855C85.938 27.3899 85.6215 26.9152 85.305 26.3613C84.9885 25.8074 84.8303 25.2536 84.6721 24.6206H80.3994C80.5577 25.6492 80.8741 26.5987 81.3489 27.469C81.8236 28.3394 82.4566 29.0515 83.2478 29.6845C84.0391 30.3174 84.9885 30.7922 86.0963 31.1087C87.204 31.4252 88.5491 31.6625 90.0524 31.6625L94.4042 31.0296C95.591 30.6339 96.5405 30.1592 97.3317 29.5262C98.123 28.8932 98.7559 28.102 99.2307 27.2316C99.7054 26.3613 99.8637 25.4118 99.8637 24.3832C99.8637 24.3041 99.8637 24.225 99.8637 24.0667L93.2173 23.1964C93.4547 23.5129 93.613 23.6711 93.7712 23.9085Z" fill="black"/>
<path d="M105.877 28.0229L111.732 27.2316V25.6492L105.877 24.9371V28.0229Z" fill="black"/>
<path d="M122.176 13.1478C121.86 12.4357 121.464 11.8027 120.99 11.3279C120.515 10.8532 119.882 10.3785 119.249 10.062C118.616 9.74547 117.825 9.58722 117.112 9.58722C116.084 9.58722 114.976 9.74547 113.948 10.062C112.919 10.3785 111.89 10.8532 111.02 11.4862V0.329838H109.279L105.165 2.46616V24.225L111.02 25.0162V15.0467C111.337 14.7302 111.732 14.4929 112.128 14.2555C112.523 14.0181 112.919 13.7807 113.315 13.6225C113.71 13.4643 114.027 13.306 114.422 13.2269C114.818 13.1478 115.055 13.0686 115.293 13.0686C115.767 13.0686 116.242 13.306 116.559 13.8599C116.875 14.4137 117.033 15.1258 117.033 16.0753V26.7569L122.809 25.9657V15.5214C122.572 14.6511 122.493 13.8599 122.176 13.1478Z" fill="black"/>
</g>
<defs>
<clipPath id="clip0_4646_3922">
<rect width="184.119" height="38.2955" fill="white" transform="translate(0.880836 0.329838)"/>
</clipPath>
</defs>
</svg>
